<svg width="25" height="25" viewBox="0 0 25 25" fill="none" xmlns="http://www.w3.org/2000/svg">
<path d="M24.1413 12.4961C24.1413 11.6804 24.0748 10.8603 23.9331 10.0578H12.5588V14.6787H19.0723C18.802 16.1691 17.9336 17.4875 16.6619 18.3253V21.3236H20.5478C22.8298 19.2336 24.1413 16.147 24.1413 12.4961Z" fill="#4285F4"/>
<path d="M12.5588 24.2205C15.8111 24.2205 18.5539 23.1579 20.5522 21.3236L16.6663 18.3253C15.5852 19.0572 14.1894 19.4717 12.5633 19.4717C9.41728 19.4717 6.74985 17.3596 5.79277 14.52H1.78276V17.6109C3.82986 21.6631 7.99938 24.2205 12.5588 24.2205Z" fill="#34A853"/>
<path d="M5.78833 14.52C5.28321 13.0296 5.28321 11.4158 5.78833 9.92548V6.83453H1.78276C0.0724137 10.2253 0.0724138 14.2202 1.78276 17.6109L5.78833 14.52Z" fill="#FBBC04"/>
<path d="M12.5588 4.96939C14.278 4.94293 15.9396 5.58669 17.1847 6.7684L20.6276 3.34234C18.4475 1.30523 15.5541 0.185261 12.5588 0.220535C7.99938 0.220535 3.82986 2.77795 1.78276 6.83453L5.78833 9.92548C6.74099 7.08146 9.41285 4.96939 12.5588 4.96939Z" fill="#EA4335"/>
</svg>
