<svg class="animated" id="freepik_stories-online-report" xmlns="http://www.w3.org/2000/svg" viewBox="0 0 500 500" version="1.1" xmlns:xlink="http://www.w3.org/1999/xlink" xmlns:svgjs="http://svgjs.com/svgjs"><style>svg#freepik_stories-online-report:not(.animated) .animable {opacity: 0;}svg#freepik_stories-online-report.animated #freepik--Character--inject-66 {animation: 1.5s Infinite  linear floating;animation-delay: 0s;}            @keyframes floating {                0% {                    opacity: 1;                    transform: translateY(0px);                }                50% {                    transform: translateY(-10px);                }                100% {                    opacity: 1;                    transform: translateY(0px);                }            }        </style><g id="freepik--background-simple--inject-66" class="animable" style="transform-origin: 246.144px 229.987px;"><path d="M464.86,277.39c-14.73,39.43-44.81,82.11-87.14,94.75-64,19.1-71.6,70.65-186.16,65.87A230.92,230.92,0,0,1,142,430.75,194.41,194.41,0,0,1,118.73,423C51.8,395.89,16.89,336.23,14,273.81c-3.82-82.11,53.46-121.24,90.69-144.15S186.79,18,299.44,21.77a224.06,224.06,0,0,1,50.92,7.44c37.91,10.26,76.44,32.95,98.84,66.12q2.52,3.75,4.82,7.64C484,153.82,484.93,223.63,464.86,277.39Z" style="fill: rgb(255, 114, 94); transform-origin: 246.144px 229.987px;" id="eltk6vrqu2ep" class="animable"></path><g id="elfku0yd71464"><path d="M464.86,277.39c-14.73,39.43-44.81,82.11-87.14,94.75-64,19.1-71.6,70.65-186.16,65.87A230.92,230.92,0,0,1,142,430.75,194.41,194.41,0,0,1,118.73,423C51.8,395.89,16.89,336.23,14,273.81c-3.82-82.11,53.46-121.24,90.69-144.15S186.79,18,299.44,21.77a224.06,224.06,0,0,1,50.92,7.44c37.91,10.26,76.44,32.95,98.84,66.12q2.52,3.75,4.82,7.64C484,153.82,484.93,223.63,464.86,277.39Z" style="fill: rgb(255, 255, 255); opacity: 0.7; transform-origin: 246.144px 229.987px;" class="animable"></path></g></g><g id="freepik--Pictures--inject-66" class="animable" style="transform-origin: 408.685px 163.045px;"><g id="elantmmyzytw"><g style="opacity: 0.3; transform-origin: 434.625px 163.045px;" class="animable"><rect x="396.25" y="109.32" width="76.75" height="107.45" style="fill: none; stroke: rgb(0, 0, 0); stroke-miterlimit: 10; transform-origin: 434.625px 163.045px;" id="el4ztduil2d0t" class="animable"></rect><rect x="398.86" y="112.97" width="71.53" height="100.14" style="fill: none; stroke: rgb(0, 0, 0); stroke-miterlimit: 10; transform-origin: 434.625px 163.04px;" id="el6u9qg74496a" class="animable"></rect><rect x="417.65" y="139.29" width="33.94" height="47.51" style="fill: none; stroke: rgb(0, 0, 0); stroke-miterlimit: 10; transform-origin: 434.62px 163.045px;" id="eldatgk9qg9yo" class="animable"></rect></g></g><g id="elavhih30q31r"><g style="opacity: 0.3; transform-origin: 365.085px 139px;" class="animable"><rect x="344.37" y="110" width="41.43" height="58" style="fill: none; stroke: rgb(0, 0, 0); stroke-miterlimit: 10; transform-origin: 365.085px 139px;" id="elbanahpqc6yw" class="animable"></rect><rect x="345.78" y="111.97" width="38.61" height="54.05" style="fill: none; stroke: rgb(0, 0, 0); stroke-miterlimit: 10; transform-origin: 365.085px 138.995px;" id="elw1qyvpk1279" class="animable"></rect><rect x="355.93" y="126.18" width="18.32" height="25.65" style="fill: none; stroke: rgb(0, 0, 0); stroke-miterlimit: 10; transform-origin: 365.09px 139.005px;" id="elnuc3h33ljpf" class="animable"></rect></g></g></g><g id="freepik--Plant--inject-66" class="animable" style="transform-origin: 391.825px 376.45px;"><line x1="397.17" y1="434.2" x2="397.17" y2="356.72" style="fill: none; stroke: rgb(94, 94, 94); stroke-miterlimit: 10; stroke-width: 4px; transform-origin: 397.17px 395.46px;" id="eltrqcwgesiv" class="animable"></line><line x1="387.53" y1="435.77" x2="387.53" y2="328.76" style="fill: none; stroke: rgb(94, 94, 94); stroke-miterlimit: 10; stroke-width: 4px; transform-origin: 387.53px 382.265px;" id="elitvg9m46nwc" class="animable"></line><line x1="409.39" y1="436.29" x2="409.39" y2="398.71" style="fill: none; stroke: rgb(94, 94, 94); stroke-miterlimit: 10; stroke-width: 4px; transform-origin: 409.39px 417.5px;" id="elx2u20wmq2tf" class="animable"></line><path d="M383.78,339.31s-1.93-3.54-8.38-11.28-33.21-28.7-33.21-28.7,15.16,8.06,20,12.25,11.29,9.35,11.29,9.35-18.06-19.66-20-20.95,18.37,15.47,18.37,15.47-7.73-15.47-11.6-20.63S349,277.41,349,277.41s21,28,21.93,29.66,5.16,8.71,5.16,8.71l-7.42-19.35,9,15.8s-12.9-26.76-13.54-28.05,9,12.57,9,12.57l-8.38-25.14,19.35,39.65-1.29-15.47,3.54,16.12,1-39.66,2.26,39.33s3.54-25.14,4.19-30.3,1-10.64,1-10.64-.65,34.17-.65,35.14-.64,8.71-.64,8.71l6.12-18.38c1.29-3.87,2.58-17.09,3.23-19s-3.23,29.66-3.55,31a36.31,36.31,0,0,1-2.26,6.12c-1,1.94,7.1-11.6,10-17.41L415.38,280s-4.84,16.12-6.13,19-9.67,18.38-9.67,18.38,12.58-14.83,18.06-18.7,15.47-11.29,15.47-11.29S417,304.81,413.77,308s-12.58,14.51-12.58,14.51,16.12-10.32,17.09-11.29,12.58-8.38,12.58-8.38-23.41,18.49-24.51,19.67c-9.35,10-12.57,14.83-14.51,16.76A5.36,5.36,0,0,1,383.78,339.31Z" style="fill: rgb(255, 114, 94); transform-origin: 387.65px 305.878px;" id="elcvs4d3bimqb" class="animable"></path><path d="M394.91,367.58a59.52,59.52,0,0,0-5.93-8c-4.56-5.47-23.49-20.29-23.49-20.29s10.72,5.7,14.14,8.66,8,6.62,8,6.62-12.77-13.91-14.14-14.83,13,10.95,13,10.95-5.47-10.95-8.21-14.6-8-12.31-8-12.31,14.82,19.84,15.51,21l3.65,6.16-5.25-13.69,6.39,11.18s-9.12-18.93-9.58-19.84,6.39,8.89,6.39,8.89l-5.93-17.79,13.68,28.05-.91-10.94,2.51,11.4.68-28.05L399,348s2.5-17.79,3-21.43.68-7.53.68-7.53-.45,24.17-.45,24.86-.46,6.16-.46,6.16l4.34-13c.91-2.74,1.82-12.09,2.28-13.46s-2.28,21-2.51,21.89a25.67,25.67,0,0,1-1.6,4.34c-.68,1.37,5-8.21,7.07-12.32l5.93-11.86s-3.42,11.41-4.33,13.46-6.84,13-6.84,13,8.89-10.49,12.77-13.23,10.94-8,10.94-8-11.4,12.31-13.68,14.59-8.89,10.27-8.89,10.27,11.4-7.3,12.08-8,8.9-5.92,8.9-5.92-16.56,13.07-17.34,13.91c-6.61,7.07-8.89,10.49-10.26,11.86A3.8,3.8,0,0,1,394.91,367.58Z" style="fill: rgb(255, 114, 94); transform-origin: 397.655px 343.961px;" id="el5xl4q63h34r" class="animable"></path><path d="M406.52,400.14a59.18,59.18,0,0,0-5.93-8c-4.56-5.48-23.49-20.3-23.49-20.3s10.72,5.7,14.14,8.67,8,6.61,8,6.61-12.77-13.91-14.14-14.82,13,10.94,13,10.94-5.47-10.94-8.21-14.59-8-12.32-8-12.32,14.82,19.84,15.51,21,3.64,6.16,3.64,6.16l-5.24-13.68L402.18,381s-9.12-18.93-9.57-19.84S399,370,399,370l-5.93-17.79,13.69,28.05-.92-10.95,2.51,11.4L409,352.7l1.59,27.83s2.51-17.79,3-21.44.68-7.53.68-7.53-.45,24.18-.45,24.86-.46,6.16-.46,6.16l4.33-13c.91-2.74,1.83-12.09,2.28-13.46s-2.28,21-2.51,21.9a25.77,25.77,0,0,1-1.59,4.33c-.69,1.37,5-8.21,7.07-12.31l5.93-11.86s-3.42,11.4-4.34,13.45-6.84,13-6.84,13,8.9-10.49,12.77-13.23,11-8,11-8S430,375.74,427.73,378s-8.9,10.26-8.9,10.26,11.41-7.3,12.09-8,8.89-5.93,8.89-5.93-16.55,13.08-17.33,13.91c-6.61,7.07-8.89,10.49-10.26,11.86A3.79,3.79,0,0,1,406.52,400.14Z" style="fill: rgb(255, 114, 94); transform-origin: 409.28px 376.486px;" id="ele4aask26wnu" class="animable"></path><path d="M418.23,482.26A78.73,78.73,0,0,0,421,461.37c0-1.33,0-2.65-.09-3.95a80.4,80.4,0,0,0-1.05-9.83c-.2-1.19-.43-2.36-.68-3.51-.21-.95-.44-1.89-.68-2.81A54.73,54.73,0,0,0,414,429.58H380.54a55.26,55.26,0,0,0-4.46,11.69c-.25.92-.47,1.86-.68,2.81-.26,1.15-.48,2.32-.69,3.51a80.43,80.43,0,0,0-1,9.83c-.07,1.3-.09,2.62-.09,3.95a78.32,78.32,0,0,0,2.72,20.89Z" style="fill: rgb(255, 255, 255); stroke: rgb(38, 50, 56); stroke-miterlimit: 10; transform-origin: 397.31px 455.92px;" id="elay04xgdcoev" class="animable"></path><path d="M418.45,441.27H376.08c-.25.92-.47,1.86-.68,2.81h43.73C418.92,443.13,418.69,442.19,418.45,441.27Zm1.36,6.32h-45.1a80.43,80.43,0,0,0-1,9.83h47.19A80.4,80.4,0,0,0,419.81,447.59Z" style="fill: rgb(38, 50, 56); stroke: rgb(38, 50, 56); stroke-miterlimit: 10; transform-origin: 397.305px 449.345px;" id="el36r9ld4nyq" class="animable"></path></g><g id="freepik--Screen--inject-66" class="animable" style="transform-origin: 183.55px 160.1px;"><path d="M41.58,20H318.81a0,0,0,0,1,0,0v290.2a0,0,0,0,1,0,0H35.88a0,0,0,0,1,0,0V25.69a5.7,5.7,0,0,1,5.7-5.7Z" style="fill: rgb(38, 50, 56); stroke: rgb(38, 50, 56); stroke-miterlimit: 10; transform-origin: 177.345px 165.095px;" id="elcpmaikl0hgj" class="animable"></path><path d="M50.16,10H325.72a5.5,5.5,0,0,1,5.5,5.5V301.62a0,0,0,0,1,0,0H44.66a0,0,0,0,1,0,0V15.5a5.5,5.5,0,0,1,5.5-5.5Z" style="fill: rgb(255, 255, 255); stroke: rgb(38, 50, 56); stroke-miterlimit: 10; transform-origin: 187.94px 155.81px;" id="elsgxf9svgsgb" class="animable"></path><path d="M50.16,10h63.19a5.5,5.5,0,0,1,5.5,5.5V301.62a0,0,0,0,1,0,0H44.66a0,0,0,0,1,0,0V15.5A5.5,5.5,0,0,1,50.16,10Z" style="fill: rgb(171, 171, 171); transform-origin: 81.755px 155.81px;" id="elfopd1lf8nd" class="animable"></path><path d="M50.16,10H325.72a5.5,5.5,0,0,1,5.5,5.5V41.65a0,0,0,0,1,0,0H44.66a0,0,0,0,1,0,0V15.5A5.5,5.5,0,0,1,50.16,10Z" style="fill: rgb(255, 114, 94); stroke: rgb(38, 50, 56); stroke-miterlimit: 10; transform-origin: 187.94px 25.825px;" id="el8gpuqh0il6t" class="animable"></path><path d="M50.16,10H325.72a5.5,5.5,0,0,1,5.5,5.5V30.42a0,0,0,0,1,0,0H44.66a0,0,0,0,1,0,0V15.5A5.5,5.5,0,0,1,50.16,10Z" style="fill: rgb(38, 50, 56); stroke: rgb(38, 50, 56); stroke-miterlimit: 10; transform-origin: 187.94px 20.21px;" id="elqyqic5mb36d" class="animable"></path><path d="M292.7,20.83a4.36,4.36,0,1,0-4.36,4.36A4.37,4.37,0,0,0,292.7,20.83Z" style="fill: rgb(255, 255, 255); stroke: rgb(38, 50, 56); stroke-miterlimit: 10; transform-origin: 288.34px 20.83px;" id="elwnwvr06ortf" class="animable"></path><path d="M309.42,20.83a4.36,4.36,0,1,0-4.36,4.36A4.37,4.37,0,0,0,309.42,20.83Z" style="fill: rgb(255, 255, 255); stroke: rgb(38, 50, 56); stroke-miterlimit: 10; transform-origin: 305.06px 20.83px;" id="ely61v4pott" class="animable"></path><path d="M326.15,20.83a4.37,4.37,0,1,0-4.37,4.36A4.37,4.37,0,0,0,326.15,20.83Z" style="fill: rgb(255, 255, 255); stroke: rgb(38, 50, 56); stroke-miterlimit: 10; transform-origin: 321.78px 20.82px;" id="elq7l46y2kesd" class="animable"></path><line x1="140.63" y1="40.97" x2="140.63" y2="34.16" style="fill: none; stroke: rgb(38, 50, 56); stroke-miterlimit: 10; transform-origin: 140.63px 37.565px;" id="elg0obdyjqjds" class="animable"></line><line x1="182.83" y1="40.97" x2="182.83" y2="34.16" style="fill: none; stroke: rgb(38, 50, 56); stroke-miterlimit: 10; transform-origin: 182.83px 37.565px;" id="elfkmalogtzew" class="animable"></line><line x1="225.04" y1="40.97" x2="225.04" y2="34.16" style="fill: none; stroke: rgb(38, 50, 56); stroke-miterlimit: 10; transform-origin: 225.04px 37.565px;" id="eluatt1tl42l" class="animable"></line><line x1="267.24" y1="40.97" x2="267.24" y2="34.16" style="fill: none; stroke: rgb(38, 50, 56); stroke-miterlimit: 10; transform-origin: 267.24px 37.565px;" id="elckfxbn20474" class="animable"></line><line x1="309.44" y1="40.97" x2="309.44" y2="34.16" style="fill: none; stroke: rgb(38, 50, 56); stroke-miterlimit: 10; transform-origin: 309.44px 37.565px;" id="el6m159hvaaab" class="animable"></line><rect x="133.83" y="68" width="181.06" height="179.7" style="fill: rgb(255, 255, 255); stroke: rgb(38, 50, 56); stroke-miterlimit: 10; transform-origin: 224.36px 157.85px;" id="elpf53fusm2io" class="animable"></rect><line x1="235.21" y1="113.24" x2="259.59" y2="113.24" style="fill: none; stroke: rgb(38, 50, 56); stroke-miterlimit: 10; transform-origin: 247.4px 113.24px;" id="eltdmt1511ro" class="animable"></line><line x1="235.21" y1="131.16" x2="259.59" y2="131.16" style="fill: none; stroke: rgb(38, 50, 56); stroke-miterlimit: 10; transform-origin: 247.4px 131.16px;" id="elsfdxg6sgp3g" class="animable"></line><line x1="235.21" y1="149.07" x2="259.59" y2="149.07" style="fill: none; stroke: rgb(38, 50, 56); stroke-miterlimit: 10; transform-origin: 247.4px 149.07px;" id="el1xif0wx9yar" class="animable"></line><line x1="188.43" y1="188.51" x2="200.32" y2="188.51" style="fill: none; stroke: rgb(38, 50, 56); stroke-miterlimit: 10; transform-origin: 194.375px 188.51px;" id="elyxfho6cm39" class="animable"></line><line x1="160.66" y1="188.51" x2="185.72" y2="188.51" style="fill: none; stroke: rgb(38, 50, 56); stroke-miterlimit: 10; transform-origin: 173.19px 188.51px;" id="el0ktufo4ur4ze" class="animable"></line><line x1="148.8" y1="188.51" x2="157.27" y2="188.51" style="fill: none; stroke: rgb(38, 50, 56); stroke-miterlimit: 10; transform-origin: 153.035px 188.51px;" id="elwi7uynpr81b" class="animable"></line><line x1="169.13" y1="194.02" x2="200.32" y2="194.02" style="fill: none; stroke: rgb(38, 50, 56); stroke-miterlimit: 10; transform-origin: 184.725px 194.02px;" id="elcdpingcksho" class="animable"></line><line x1="148.8" y1="194.02" x2="166.42" y2="194.02" style="fill: none; stroke: rgb(38, 50, 56); stroke-miterlimit: 10; transform-origin: 157.61px 194.02px;" id="eldn67qfz1dzh" class="animable"></line><line x1="187.42" y1="199.52" x2="200.32" y2="199.52" style="fill: none; stroke: rgb(38, 50, 56); stroke-miterlimit: 10; transform-origin: 193.87px 199.52px;" id="eljokbgv7xwcm" class="animable"></line><line x1="163.37" y1="199.52" x2="184.03" y2="199.52" style="fill: none; stroke: rgb(38, 50, 56); stroke-miterlimit: 10; transform-origin: 173.7px 199.52px;" id="elj2xvemnyrta" class="animable"></line><line x1="148.8" y1="199.52" x2="160.32" y2="199.52" style="fill: none; stroke: rgb(38, 50, 56); stroke-miterlimit: 10; transform-origin: 154.56px 199.52px;" id="elrgev5ipwzf" class="animable"></line><line x1="148.8" y1="205.02" x2="200.32" y2="205.02" style="fill: none; stroke: rgb(38, 50, 56); stroke-miterlimit: 10; transform-origin: 174.56px 205.02px;" id="el9986hpi3y2p" class="animable"></line><line x1="170.14" y1="210.52" x2="200.32" y2="210.52" style="fill: none; stroke: rgb(38, 50, 56); stroke-miterlimit: 10; transform-origin: 185.23px 210.52px;" id="elmxys5xbupz" class="animable"></line><line x1="148.8" y1="210.52" x2="166.42" y2="210.52" style="fill: none; stroke: rgb(38, 50, 56); stroke-miterlimit: 10; transform-origin: 157.61px 210.52px;" id="elsm7db89wro" class="animable"></line><line x1="191.48" y1="216.03" x2="200.32" y2="216.03" style="fill: none; stroke: rgb(38, 50, 56); stroke-miterlimit: 10; transform-origin: 195.9px 216.03px;" id="elzkrmnetanxi" class="animable"></line><line x1="148.8" y1="216.03" x2="188.77" y2="216.03" style="fill: none; stroke: rgb(38, 50, 56); stroke-miterlimit: 10; transform-origin: 168.785px 216.03px;" id="elbk6atbbwu3k" class="animable"></line><line x1="192.84" y1="221.53" x2="200.32" y2="221.53" style="fill: none; stroke: rgb(38, 50, 56); stroke-miterlimit: 10; transform-origin: 196.58px 221.53px;" id="elirjswkquhgk" class="animable"></line><line x1="162.35" y1="221.53" x2="190.81" y2="221.53" style="fill: none; stroke: rgb(38, 50, 56); stroke-miterlimit: 10; transform-origin: 176.58px 221.53px;" id="ell20m9ms6g5" class="animable"></line><line x1="148.8" y1="221.53" x2="160.32" y2="221.53" style="fill: none; stroke: rgb(38, 50, 56); stroke-miterlimit: 10; transform-origin: 154.56px 221.53px;" id="elrrzthk1uegs" class="animable"></line><line x1="194.19" y1="227.03" x2="200.32" y2="227.03" style="fill: none; stroke: rgb(38, 50, 56); stroke-miterlimit: 10; transform-origin: 197.255px 227.03px;" id="elu86mqgnvggq" class="animable"></line><line x1="173.87" y1="227.03" x2="190.47" y2="227.03" style="fill: none; stroke: rgb(38, 50, 56); stroke-miterlimit: 10; transform-origin: 182.17px 227.03px;" id="el2s6e8e34ytj" class="animable"></line><line x1="148.8" y1="227.03" x2="171.5" y2="227.03" style="fill: none; stroke: rgb(38, 50, 56); stroke-miterlimit: 10; transform-origin: 160.15px 227.03px;" id="elc3hkohw73xb" class="animable"></line><line x1="295.89" y1="108.3" x2="304.84" y2="108.3" style="fill: none; stroke: rgb(38, 50, 56); stroke-miterlimit: 10; transform-origin: 300.365px 108.3px;" id="eleb7filvdetm" class="animable"></line><line x1="274.97" y1="108.3" x2="293.85" y2="108.3" style="fill: none; stroke: rgb(38, 50, 56); stroke-miterlimit: 10; transform-origin: 284.41px 108.3px;" id="elm0s7yzesi1k" class="animable"></line><line x1="266.04" y1="108.3" x2="272.42" y2="108.3" style="fill: none; stroke: rgb(38, 50, 56); stroke-miterlimit: 10; transform-origin: 269.23px 108.3px;" id="el9e0u8tco2ae" class="animable"></line><line x1="281.35" y1="114.78" x2="304.84" y2="114.78" style="fill: none; stroke: rgb(38, 50, 56); stroke-miterlimit: 10; transform-origin: 293.095px 114.78px;" id="el7n4ny20cj94" class="animable"></line><line x1="266.04" y1="114.78" x2="279.31" y2="114.78" style="fill: none; stroke: rgb(38, 50, 56); stroke-miterlimit: 10; transform-origin: 272.675px 114.78px;" id="el141hmba296wh" class="animable"></line><line x1="295.12" y1="121.26" x2="304.84" y2="121.26" style="fill: none; stroke: rgb(38, 50, 56); stroke-miterlimit: 10; transform-origin: 299.98px 121.26px;" id="elonkh3wpzass" class="animable"></line><line x1="277.01" y1="121.26" x2="292.57" y2="121.26" style="fill: none; stroke: rgb(38, 50, 56); stroke-miterlimit: 10; transform-origin: 284.79px 121.26px;" id="elgen34nayryp" class="animable"></line><line x1="266.04" y1="121.26" x2="274.71" y2="121.26" style="fill: none; stroke: rgb(38, 50, 56); stroke-miterlimit: 10; transform-origin: 270.375px 121.26px;" id="eldal32e98i2p" class="animable"></line><line x1="266.04" y1="127.74" x2="304.84" y2="127.74" style="fill: none; stroke: rgb(38, 50, 56); stroke-miterlimit: 10; transform-origin: 285.44px 127.74px;" id="elgouud0ry4pf" class="animable"></line><line x1="282.11" y1="134.21" x2="304.84" y2="134.21" style="fill: none; stroke: rgb(38, 50, 56); stroke-miterlimit: 10; transform-origin: 293.475px 134.21px;" id="el3a4x4sqm4g7" class="animable"></line><line x1="266.04" y1="134.21" x2="279.31" y2="134.21" style="fill: none; stroke: rgb(38, 50, 56); stroke-miterlimit: 10; transform-origin: 272.675px 134.21px;" id="elrzkbps58ok" class="animable"></line><line x1="298.18" y1="140.69" x2="304.84" y2="140.69" style="fill: none; stroke: rgb(38, 50, 56); stroke-miterlimit: 10; transform-origin: 301.51px 140.69px;" id="elobl7kjy12z8" class="animable"></line><line x1="266.04" y1="140.69" x2="296.14" y2="140.69" style="fill: none; stroke: rgb(38, 50, 56); stroke-miterlimit: 10; transform-origin: 281.09px 140.69px;" id="elli7624695nn" class="animable"></line><line x1="299.2" y1="147.17" x2="304.84" y2="147.17" style="fill: none; stroke: rgb(38, 50, 56); stroke-miterlimit: 10; transform-origin: 302.02px 147.17px;" id="elrikxr66fbjg" class="animable"></line><line x1="276.24" y1="147.17" x2="297.67" y2="147.17" style="fill: none; stroke: rgb(38, 50, 56); stroke-miterlimit: 10; transform-origin: 286.955px 147.17px;" id="elg5c8e5tvx4" class="animable"></line><line x1="266.04" y1="147.17" x2="274.71" y2="147.17" style="fill: none; stroke: rgb(38, 50, 56); stroke-miterlimit: 10; transform-origin: 270.375px 147.17px;" id="eldp2rb1gs8kt" class="animable"></line><line x1="300.23" y1="153.65" x2="304.84" y2="153.65" style="fill: none; stroke: rgb(38, 50, 56); stroke-miterlimit: 10; transform-origin: 302.535px 153.65px;" id="elautpjyakyo" class="animable"></line><line x1="284.92" y1="153.65" x2="297.42" y2="153.65" style="fill: none; stroke: rgb(38, 50, 56); stroke-miterlimit: 10; transform-origin: 291.17px 153.65px;" id="eltduvlhqimq" class="animable"></line><line x1="266.04" y1="153.65" x2="283.13" y2="153.65" style="fill: none; stroke: rgb(38, 50, 56); stroke-miterlimit: 10; transform-origin: 274.585px 153.65px;" id="elk5withc14fm" class="animable"></line><path d="M175,160.38a28.33,28.33,0,0,1-13.67-3.52l3.72-6.73a20.55,20.55,0,0,0,27.5-28.66l6.56-4A28.23,28.23,0,0,1,175,160.38Z" style="fill: rgb(255, 114, 94); stroke: rgb(38, 50, 56); stroke-miterlimit: 10; transform-origin: 182.279px 138.925px;" id="elyd1cchezet" class="animable"></path><path d="M161.32,156.86a28.24,28.24,0,0,1,8-52.38l1.52,7.54A20.55,20.55,0,0,0,165,150.13Z" style="fill: rgb(38, 50, 56); stroke: rgb(38, 50, 56); stroke-miterlimit: 10; transform-origin: 158.792px 130.67px;" id="elemp1wg5ym64" class="animable"></path><path d="M192.54,121.47A20.43,20.43,0,0,0,175,111.61a20.83,20.83,0,0,0-4.11.41l-1.52-7.54a28.59,28.59,0,0,1,5.63-.56,28.05,28.05,0,0,1,24.11,13.55Z" style="fill: rgb(171, 171, 171); stroke: rgb(38, 50, 56); stroke-miterlimit: 10; transform-origin: 184.24px 112.695px;" id="elovfm464emc" class="animable"></path><rect x="221.77" y="108.76" width="8.46" height="8.46" style="fill: rgb(255, 114, 94); stroke: rgb(38, 50, 56); stroke-miterlimit: 10; transform-origin: 226px 112.99px;" id="el6i2sr16thk9" class="animable"></rect><rect x="221.77" y="126.93" width="8.46" height="8.46" style="fill: rgb(38, 50, 56); stroke: rgb(38, 50, 56); stroke-miterlimit: 10; transform-origin: 226px 131.16px;" id="elmx3lx3m1c" class="animable"></rect><rect x="221.77" y="145.09" width="8.46" height="8.46" style="fill: rgb(171, 171, 171); stroke: rgb(38, 50, 56); stroke-miterlimit: 10; transform-origin: 226px 149.32px;" id="elflo16k3i524" class="animable"></rect><rect x="219.33" y="195.02" width="12.51" height="33.51" style="fill: rgb(38, 50, 56); transform-origin: 225.585px 211.775px;" id="eloyu1r0bd3m" class="animable"></rect><rect x="235.84" y="180.01" width="12.51" height="48.52" style="fill: rgb(255, 114, 94); stroke: rgb(38, 50, 56); stroke-miterlimit: 10; transform-origin: 242.095px 204.27px;" id="el9wk3plna31" class="animable"></rect><rect x="252.35" y="202.52" width="12.51" height="26.01" style="fill: rgb(38, 50, 56); transform-origin: 258.605px 215.525px;" id="el5h41hkbwa9m" class="animable"></rect><rect x="268.85" y="187.01" width="12.51" height="41.52" style="fill: rgb(255, 114, 94); stroke: rgb(38, 50, 56); stroke-miterlimit: 10; transform-origin: 275.105px 207.77px;" id="elxz384z2mku" class="animable"></rect><rect x="285.36" y="173.51" width="12.51" height="55.02" style="fill: rgb(38, 50, 56); transform-origin: 291.615px 201.02px;" id="elpxywhvhfal" class="animable"></rect><rect x="198.49" y="80.94" width="63.98" height="6.13" style="fill: rgb(38, 50, 56); transform-origin: 230.48px 84.005px;" id="elvf6f6yejpzq" class="animable"></rect><rect x="52.83" y="60.35" width="57.86" height="61.94" style="fill: rgb(255, 255, 255); stroke: rgb(38, 50, 56); stroke-miterlimit: 10; transform-origin: 81.76px 91.32px;" id="elz8yee3esbpm" class="animable"></rect><path d="M81.75,101.84a16.05,16.05,0,0,1-7.76-2L76.11,96A11.67,11.67,0,0,0,91.72,79.74l3.73-2.27a16,16,0,0,1-13.7,24.37Z" style="fill: rgb(255, 114, 94); transform-origin: 85.902px 89.6551px;" id="elrsgfkjssqpf" class="animable"></path><path d="M74,99.83a16,16,0,0,1,4.57-29.74l.86,4.28A11.67,11.67,0,0,0,76.11,96Z" style="fill: rgb(38, 50, 56); transform-origin: 72.549px 84.96px;" id="el5unnqork72" class="animable"></path><path d="M91.72,79.74a11.58,11.58,0,0,0-10-5.6,12.11,12.11,0,0,0-2.33.23l-.86-4.28a16.2,16.2,0,0,1,3.19-.32,15.94,15.94,0,0,1,13.7,7.7Z" style="fill: rgb(171, 171, 171); transform-origin: 86.975px 74.755px;" id="el3iwti2dgcbd" class="animable"></path><line x1="92.2" y1="107.41" x2="101.15" y2="107.41" style="fill: none; stroke: rgb(38, 50, 56); stroke-miterlimit: 10; transform-origin: 96.675px 107.41px;" id="elt4acieilajn" class="animable"></line><line x1="71.28" y1="107.41" x2="90.16" y2="107.41" style="fill: none; stroke: rgb(38, 50, 56); stroke-miterlimit: 10; transform-origin: 80.72px 107.41px;" id="elqg3qst8i0nl" class="animable"></line><line x1="62.35" y1="107.41" x2="68.73" y2="107.41" style="fill: none; stroke: rgb(38, 50, 56); stroke-miterlimit: 10; transform-origin: 65.54px 107.41px;" id="el3zn8gh1fnvt" class="animable"></line><line x1="77.66" y1="110.46" x2="101.15" y2="110.46" style="fill: none; stroke: rgb(38, 50, 56); stroke-miterlimit: 10; transform-origin: 89.405px 110.46px;" id="elqc1u0i9vamh" class="animable"></line><line x1="62.35" y1="110.46" x2="75.62" y2="110.46" style="fill: none; stroke: rgb(38, 50, 56); stroke-miterlimit: 10; transform-origin: 68.985px 110.46px;" id="elh856gdi6gch" class="animable"></line><line x1="91.44" y1="113.52" x2="101.15" y2="113.52" style="fill: none; stroke: rgb(38, 50, 56); stroke-miterlimit: 10; transform-origin: 96.295px 113.52px;" id="el8vb6qsfuaa5" class="animable"></line><line x1="73.32" y1="113.52" x2="88.89" y2="113.52" style="fill: none; stroke: rgb(38, 50, 56); stroke-miterlimit: 10; transform-origin: 81.105px 113.52px;" id="el7kw76ocz0s" class="animable"></line><line x1="62.35" y1="113.52" x2="71.03" y2="113.52" style="fill: none; stroke: rgb(38, 50, 56); stroke-miterlimit: 10; transform-origin: 66.69px 113.52px;" id="el7nirdu6qtq7" class="animable"></line><rect x="52.83" y="144.24" width="57.86" height="61.94" style="fill: rgb(255, 255, 255); stroke: rgb(38, 50, 56); stroke-miterlimit: 10; transform-origin: 81.76px 175.21px;" id="elt0jisq59cjd" class="animable"></rect><line x1="93.32" y1="151.06" x2="104.13" y2="151.06" style="fill: none; stroke: rgb(38, 50, 56); stroke-miterlimit: 10; transform-origin: 98.725px 151.06px;" id="el4za414koibo" class="animable"></line><line x1="68.05" y1="151.06" x2="79.55" y2="151.06" style="fill: none; stroke: rgb(38, 50, 56); stroke-miterlimit: 10; transform-origin: 73.8px 151.06px;" id="el7gmx1j9nmpl" class="animable"></line><line x1="57.27" y1="151.06" x2="64.97" y2="151.06" style="fill: none; stroke: rgb(38, 50, 56); stroke-miterlimit: 10; transform-origin: 61.12px 151.06px;" id="elvs72p1ffxe" class="animable"></line><line x1="75.76" y1="157.54" x2="79.37" y2="157.54" style="fill: none; stroke: rgb(38, 50, 56); stroke-miterlimit: 10; transform-origin: 77.565px 157.54px;" id="el65d4rtaen07" class="animable"></line><line x1="57.27" y1="157.54" x2="73.29" y2="157.54" style="fill: none; stroke: rgb(38, 50, 56); stroke-miterlimit: 10; transform-origin: 65.28px 157.54px;" id="el8fcfzxsrvkl" class="animable"></line><line x1="70.52" y1="164.02" x2="79.37" y2="164.02" style="fill: none; stroke: rgb(38, 50, 56); stroke-miterlimit: 10; transform-origin: 74.945px 164.02px;" id="el1tcgc98kkdu" class="animable"></line><line x1="57.27" y1="164.02" x2="67.74" y2="164.02" style="fill: none; stroke: rgb(38, 50, 56); stroke-miterlimit: 10; transform-origin: 62.505px 164.02px;" id="elwu98pmv1s3" class="animable"></line><line x1="57.27" y1="170.5" x2="79.37" y2="170.5" style="fill: none; stroke: rgb(38, 50, 56); stroke-miterlimit: 10; transform-origin: 68.32px 170.5px;" id="eljljo044lv8i" class="animable"></line><line x1="76.68" y1="176.98" x2="104.13" y2="176.98" style="fill: none; stroke: rgb(38, 50, 56); stroke-miterlimit: 10; transform-origin: 90.405px 176.98px;" id="elo5rubv5kf0m" class="animable"></line><line x1="57.27" y1="176.98" x2="73.29" y2="176.98" style="fill: none; stroke: rgb(38, 50, 56); stroke-miterlimit: 10; transform-origin: 65.28px 176.98px;" id="elzceevikplhl" class="animable"></line><line x1="96.09" y1="183.46" x2="104.13" y2="183.46" style="fill: none; stroke: rgb(38, 50, 56); stroke-miterlimit: 10; transform-origin: 100.11px 183.46px;" id="elvdy6si5aswi" class="animable"></line><line x1="57.27" y1="183.46" x2="93.63" y2="183.46" style="fill: none; stroke: rgb(38, 50, 56); stroke-miterlimit: 10; transform-origin: 75.45px 183.46px;" id="eltjbzwafi3sp" class="animable"></line><line x1="97.33" y1="189.93" x2="104.13" y2="189.93" style="fill: none; stroke: rgb(38, 50, 56); stroke-miterlimit: 10; transform-origin: 100.73px 189.93px;" id="el4o7dwkfjthx" class="animable"></line><line x1="69.59" y1="189.93" x2="95.48" y2="189.93" style="fill: none; stroke: rgb(38, 50, 56); stroke-miterlimit: 10; transform-origin: 82.535px 189.93px;" id="ele33zkqurnu" class="animable"></line><line x1="57.27" y1="189.93" x2="67.74" y2="189.93" style="fill: none; stroke: rgb(38, 50, 56); stroke-miterlimit: 10; transform-origin: 62.505px 189.93px;" id="eli638gdlwkij" class="animable"></line><line x1="98.56" y1="196.41" x2="104.13" y2="196.41" style="fill: none; stroke: rgb(38, 50, 56); stroke-miterlimit: 10; transform-origin: 101.345px 196.41px;" id="el6ekz7ezp9zf" class="animable"></line><line x1="80.07" y1="196.41" x2="95.17" y2="196.41" style="fill: none; stroke: rgb(38, 50, 56); stroke-miterlimit: 10; transform-origin: 87.62px 196.41px;" id="elksxdkshfphd" class="animable"></line><line x1="57.27" y1="196.41" x2="77.91" y2="196.41" style="fill: none; stroke: rgb(38, 50, 56); stroke-miterlimit: 10; transform-origin: 67.59px 196.41px;" id="eli4mv0v5mtsa" class="animable"></line><rect x="81.46" y="151.11" width="22.68" height="22.68" style="fill: none; stroke: rgb(38, 50, 56); stroke-miterlimit: 10; transform-origin: 92.8px 162.45px;" id="elkq2jnibxvvq" class="animable"></rect><polyline points="81.46 173.78 90.14 164.13 94.48 167.03 100.76 159.79 103.65 161.24" style="fill: none; stroke: rgb(38, 50, 56); stroke-miterlimit: 10; transform-origin: 92.555px 166.785px;" id="eljgfld2tctd" class="animable"></polyline><circle cx="88.21" cy="157.38" r="3.38" style="fill: none; stroke: rgb(38, 50, 56); stroke-miterlimit: 10; transform-origin: 88.21px 157.38px;" id="elbfygtr0h51" class="animable"></circle><rect x="52.83" y="224.05" width="57.86" height="61.94" style="fill: rgb(255, 255, 255); stroke: rgb(38, 50, 56); stroke-miterlimit: 10; transform-origin: 81.76px 255.02px;" id="ellvc0pvfdz2" class="animable"></rect><line x1="78.11" y1="259.51" x2="100.84" y2="259.51" style="fill: none; stroke: rgb(38, 50, 56); stroke-miterlimit: 10; transform-origin: 89.475px 259.51px;" id="elch5vvapnj3f" class="animable"></line><line x1="62.04" y1="259.51" x2="75.3" y2="259.51" style="fill: none; stroke: rgb(38, 50, 56); stroke-miterlimit: 10; transform-origin: 68.67px 259.51px;" id="el2c8dhnrke11" class="animable"></line><line x1="94.18" y1="265.99" x2="100.84" y2="265.99" style="fill: none; stroke: rgb(38, 50, 56); stroke-miterlimit: 10; transform-origin: 97.51px 265.99px;" id="elu3v48lgxovo" class="animable"></line><line x1="62.04" y1="265.99" x2="92.14" y2="265.99" style="fill: none; stroke: rgb(38, 50, 56); stroke-miterlimit: 10; transform-origin: 77.09px 265.99px;" id="elqyvj92fnkub" class="animable"></line><line x1="95.2" y1="272.47" x2="100.84" y2="272.47" style="fill: none; stroke: rgb(38, 50, 56); stroke-miterlimit: 10; transform-origin: 98.02px 272.47px;" id="elvqr53orablh" class="animable"></line><line x1="72.24" y1="272.47" x2="93.67" y2="272.47" style="fill: none; stroke: rgb(38, 50, 56); stroke-miterlimit: 10; transform-origin: 82.955px 272.47px;" id="elii01vx321p" class="animable"></line><line x1="62.04" y1="272.47" x2="70.71" y2="272.47" style="fill: none; stroke: rgb(38, 50, 56); stroke-miterlimit: 10; transform-origin: 66.375px 272.47px;" id="eliqci3clpwdc" class="animable"></line><line x1="96.22" y1="278.95" x2="100.84" y2="278.95" style="fill: none; stroke: rgb(38, 50, 56); stroke-miterlimit: 10; transform-origin: 98.53px 278.95px;" id="el1ferra24il9" class="animable"></line><line x1="80.92" y1="278.95" x2="93.42" y2="278.95" style="fill: none; stroke: rgb(38, 50, 56); stroke-miterlimit: 10; transform-origin: 87.17px 278.95px;" id="elx47n633lc9" class="animable"></line><line x1="62.04" y1="278.95" x2="79.13" y2="278.95" style="fill: none; stroke: rgb(38, 50, 56); stroke-miterlimit: 10; transform-origin: 70.585px 278.95px;" id="el6e38vzzbbw6" class="animable"></line><rect x="62.33" y="240.66" width="6.13" height="14.84" style="fill: rgb(38, 50, 56); transform-origin: 65.395px 248.08px;" id="el4lvluk3g8g" class="animable"></rect><rect x="70.42" y="234.02" width="6.13" height="21.48" style="fill: rgb(255, 114, 94); stroke: rgb(38, 50, 56); stroke-miterlimit: 10; transform-origin: 73.485px 244.76px;" id="el7vocp749nc8" class="animable"></rect><rect x="78.51" y="243.99" width="6.13" height="11.52" style="fill: rgb(38, 50, 56); transform-origin: 81.575px 249.75px;" id="elc1t1kge2ian" class="animable"></rect><rect x="86.59" y="237.12" width="6.13" height="18.38" style="fill: rgb(255, 114, 94); stroke: rgb(38, 50, 56); stroke-miterlimit: 10; transform-origin: 89.655px 246.31px;" id="elmdpsq803jvi" class="animable"></rect><rect x="94.68" y="231.14" width="6.13" height="24.36" style="fill: rgb(38, 50, 56); transform-origin: 97.745px 243.32px;" id="elmxtsf1tnsq" class="animable"></rect></g><g id="freepik--Character--inject-66" class="animable" style="transform-origin: 235.047px 357.788px;"><path d="M263.92,482.26V366.1a7.62,7.62,0,0,0-7.54-7.71H126.92a7.63,7.63,0,0,0-7.54,7.71V482.26Z" style="fill: rgb(212, 212, 212); stroke: rgb(38, 50, 56); stroke-miterlimit: 10; transform-origin: 191.65px 420.325px;" id="elezxnm59h616" class="animable"></path><path d="M278.34,482.26V366.1a7.63,7.63,0,0,0-7.54-7.71H141.34a7.62,7.62,0,0,0-7.54,7.71V482.26Z" style="fill: rgb(212, 212, 212); stroke: rgb(38, 50, 56); stroke-miterlimit: 10; transform-origin: 206.07px 420.325px;" id="eldkq4xwpwej" class="animable"></path><path d="M350.71,482.26V426a5.87,5.87,0,0,0-5.8-5.93H271.77A5.86,5.86,0,0,0,266,426v56.3Z" style="fill: rgb(212, 212, 212); stroke: rgb(38, 50, 56); stroke-miterlimit: 10; transform-origin: 308.355px 451.185px;" id="ell605ys584nh" class="animable"></path><path d="M350.71,482.26V426.15a5.89,5.89,0,0,0-5.62-6.12H315.51a5.89,5.89,0,0,0-5.62,6.12v56.11Z" style="fill: rgb(212, 212, 212); stroke: rgb(38, 50, 56); stroke-miterlimit: 10; transform-origin: 330.3px 451.145px;" id="el0ab7nvigd66" class="animable"></path><path d="M336.54,482.26c-13-8.31-43.94-28.44-50.31-35.87-8.11-9.46-9.8-12.5-16.22-12.16s-72,9.46-72,9.46a28.34,28.34,0,0,0-5.41,12.16c-.84,5.63,6,21.3,8.36,26.41Z" style="fill: rgb(38, 50, 56); stroke: rgb(38, 50, 56); stroke-miterlimit: 10; transform-origin: 264.534px 458.232px;" id="elwhhykvq5m4" class="animable"></path><path d="M224.06,307.85c1,.06,20.27,2,28,5.41s24.33,7.77,29.74,10.14,8.44,5.06,9.12,12.16,7.1,33.45,8.11,37.84,2.7,23,.68,28.73-26,6.42-26,6.42-.34,9.12,1,14.19,4.73,13.18-6.42,15.2-68.59,14.2-72.65,11.49-2.36-23.65-2.36-28.72-5.07-15.54-5.07-15.54a89,89,0,0,0-14.19,4.73c-5.75,2.7-13.18,1.35-22.64-1.69S141.27,396.38,138.57,391s9.12-13.18,11.48-17.24,18.59-41.22,19.27-45.28,9.79-5.06,22-8.78C191.28,319.68,217.64,307.51,224.06,307.85Z" style="fill: rgb(255, 114, 94); stroke: rgb(38, 50, 56); stroke-miterlimit: 10; transform-origin: 219.414px 378.832px;" id="elvjya22xmm3" class="animable"></path><path d="M210.57,437.93c8.81-9.66,30.3-32.13,45.87-39.42" style="fill: none; stroke: rgb(38, 50, 56); stroke-miterlimit: 10; transform-origin: 233.505px 418.22px;" id="elfxgbq4btd6f" class="animable"></path><path d="M206.56,442.42s.86-1,2.4-2.7" style="fill: none; stroke: rgb(38, 50, 56); stroke-miterlimit: 10; transform-origin: 207.76px 441.07px;" id="elr0a4vhxg2tc" class="animable"></path><path d="M225.19,417.11c.9-.68,1.8-1.35,2.69-2" style="fill: none; stroke: rgb(38, 50, 56); stroke-miterlimit: 10; transform-origin: 226.535px 416.11px;" id="elyttslzn1d2m" class="animable"></path><path d="M208.27,432.19s5.92-6,12.87-11.84" style="fill: none; stroke: rgb(38, 50, 56); stroke-miterlimit: 10; transform-origin: 214.705px 426.27px;" id="elexe4ztw92ft" class="animable"></path><path d="M175.82,353.51c3,11.29,7.23,26.56,8.87,30.6,2.7,6.62,4.42,17.9,4.42,17.9" style="fill: rgb(255, 255, 255); stroke: rgb(38, 50, 56); stroke-miterlimit: 10; transform-origin: 182.465px 377.76px;" id="el0gibutbokc8t" class="animable"></path><path d="M172.44,340.72s1,3.75,2.39,9.08" style="fill: rgb(255, 255, 255); stroke: rgb(38, 50, 56); stroke-miterlimit: 10; transform-origin: 173.635px 345.26px;" id="elhkamnsbludl" class="animable"></path><path d="M170.6,366.74a14.47,14.47,0,0,0-4.78-2.24" style="fill: none; stroke: rgb(38, 50, 56); stroke-miterlimit: 10; transform-origin: 168.21px 365.62px;" id="elp8vjaeypl9" class="animable"></path><path d="M163.07,372.14c3.69.79,8.15,2.39,10.59,5.6a105.08,105.08,0,0,1,6.38,9.07s.49-4.66-2.94-11.77a25.91,25.91,0,0,0-3.61-5.65" style="fill: none; stroke: rgb(38, 50, 56); stroke-miterlimit: 10; transform-origin: 171.567px 378.1px;" id="el4fk4smytlkz" class="animable"></path><path d="M157,371.37s.95,0,2.42.18" style="fill: none; stroke: rgb(38, 50, 56); stroke-miterlimit: 10; transform-origin: 158.21px 371.46px;" id="el2htnuh0eyy" class="animable"></path><path d="M151.11,377.49s8.83-4.16,17.41-.73" style="fill: none; stroke: rgb(38, 50, 56); stroke-miterlimit: 10; transform-origin: 159.815px 376.447px;" id="eloa9knzl255" class="animable"></path><line x1="279.55" y1="350.23" x2="271.96" y2="403.97" style="fill: rgb(255, 255, 255); stroke: rgb(38, 50, 56); stroke-miterlimit: 10; transform-origin: 275.755px 377.1px;" id="ely68l4vp6i2b" class="animable"></line><line x1="281.03" y1="339.74" x2="280.22" y2="345.52" style="fill: rgb(255, 255, 255); stroke: rgb(38, 50, 56); stroke-miterlimit: 10; transform-origin: 280.625px 342.63px;" id="elrdyxjksow8" class="animable"></line><path d="M292,373.17a20.16,20.16,0,0,1,5-2.05" style="fill: none; stroke: rgb(38, 50, 56); stroke-miterlimit: 10; transform-origin: 294.5px 372.145px;" id="elzdkrkxm3oc" class="animable"></path><path d="M273.43,397.6s.74-5.64,8.09-15.2a35.44,35.44,0,0,1,8.32-7.91" style="fill: none; stroke: rgb(38, 50, 56); stroke-miterlimit: 10; transform-origin: 281.635px 386.045px;" id="elhnb7pf534n" class="animable"></path><path d="M274.41,398.09s8.09-10.55,17.41-11.53" style="fill: none; stroke: rgb(38, 50, 56); stroke-miterlimit: 10; transform-origin: 283.115px 392.325px;" id="elsan4ua8mps8" class="animable"></path><path d="M220,305.15s-5.74.34-7.1,3.38-1.35,29.06-1.35,29.06,19.6-7.44,22.3-7.44,23.66,8.11,23.66,8.11-2.71-18.92-7.44-26.35-12.84-7.1-15.54-7.1S220,305.15,220,305.15Z" style="fill: rgb(255, 255, 255); stroke: rgb(38, 50, 56); stroke-miterlimit: 10; transform-origin: 234.53px 321.534px;" id="elau8wfhnweto" class="animable"></path><path d="M214.93,302.78l1.35,7.1s17.24,33.11,19.26,30.75,12.17-29.4,12.17-29.4l.67-9.46s-8.11,5.41-12.84,5.41-19.26-7.78-19.26-7.78Z" style="fill: rgb(255, 255, 255); stroke: rgb(38, 50, 56); stroke-miterlimit: 10; transform-origin: 231.655px 320.075px;" id="elzcn7rdpb1ib" class="animable"></path><path d="M248.38,301.77s-8.11,5.41-12.84,5.41-19.26-7.78-19.26-7.78l-1.35,3.38,1.35,7.1s3.89,7.47,8.19,15.06a15,15,0,0,0,2-.92C245.28,313.47,248.38,301.77,248.38,301.77Z" style="fill: rgb(38, 50, 56); stroke: rgb(38, 50, 56); stroke-miterlimit: 10; transform-origin: 231.655px 312.17px;" id="el0sl8j4epe5zc" class="animable"></path><path d="M207.38,276.94s-3.89-7.78-6.61-1.17,8.94,15.55,8.94,15.55Z" style="fill: rgb(255, 255, 255); stroke: rgb(38, 50, 56); stroke-miterlimit: 10; transform-origin: 205.034px 282.214px;" id="el6tkeigwwuaw" class="animable"></path><path d="M253.07,275.2s3.68-7.59,5.63-.59-6,15.93-6,15.93Z" style="fill: rgb(255, 255, 255); stroke: rgb(38, 50, 56); stroke-miterlimit: 10; transform-origin: 255.854px 281.092px;" id="el42x2l458isf" class="animable"></path><path d="M206.6,275s2.73,20.61,4.28,24.11c1.33,3,13.51,13.49,17.07,16.52a3.45,3.45,0,0,0,2.25.82,47.57,47.57,0,0,0,6.79-.33c1.56-.39,12-10,14.32-15.46s1.56-36.93,1.56-36.93-1.17-20.6-3.5-23.32-31.49-2.73-38.88,1.16-7.38,10.5-6.22,14.39S206.6,275,206.6,275Z" style="fill: rgb(255, 255, 255); stroke: rgb(38, 50, 56); stroke-miterlimit: 10; transform-origin: 228.346px 277.477px;" id="elv0ucwr8y0u" class="animable"></path><path d="M239.77,233.82c-12.38-1.95-17.1,1.63-24.22,6.16a20.37,20.37,0,0,0-5.06,1.58c-7.38,3.89-7.38,10.5-6.22,14.39s2.33,19,2.33,19l2.73.39s.38-8.94.77-10.1,5.06-6.61,5.45-9.33-.39-10.5-.39-10.5,4.27,13.61,20.6,18.27a44.16,44.16,0,0,0,12,1.76c.21,2.23.59,4.34,1.27,4.85l1.55,1.17s-.39,5.44.78,6.6a3.13,3.13,0,0,0,1.66.83c.05-5.91,0-11.32-.07-13.79,7.37-1.05,6.27-3.78,6.5-7.08C259.79,252.62,254.54,236.16,239.77,233.82Z" style="fill: rgb(38, 50, 56); stroke: rgb(38, 50, 56); stroke-miterlimit: 10; transform-origin: 231.585px 256.083px;" id="eljnl8k8vdglk" class="animable"></path><path d="M226,291.27a8.3,8.3,0,0,0,4.33,3.43c2.71.72,5.6.9,8.66-3.79" style="fill: none; stroke: rgb(38, 50, 56); stroke-miterlimit: 10; transform-origin: 232.495px 292.998px;" id="els0vnmbopfk" class="animable"></path><path d="M221.67,297.94s3.43,4.15,10.83,3.79,10.1-3.42,10.1-3.42" style="fill: none; stroke: rgb(38, 50, 56); stroke-miterlimit: 10; transform-origin: 232.135px 299.846px;" id="elauhnlbkk6wt" class="animable"></path><path d="M216.8,281.88a12,12,0,0,0,9.38.72" style="fill: none; stroke: rgb(38, 50, 56); stroke-miterlimit: 10; transform-origin: 221.49px 282.556px;" id="elo7e563u4p4" class="animable"></path><path d="M237.91,282.6a14.19,14.19,0,0,0,11-.18" style="fill: none; stroke: rgb(38, 50, 56); stroke-miterlimit: 10; transform-origin: 243.41px 283.021px;" id="elr1ena614w69" class="animable"></path><path d="M215.53,275.93s2.89-4.33,10.65-1.63" style="fill: none; stroke: rgb(38, 50, 56); stroke-miterlimit: 10; transform-origin: 220.855px 274.672px;" id="elvn85y82wzue" class="animable"></path><path d="M238.09,275.2a8.58,8.58,0,0,1,10.29.73" style="fill: none; stroke: rgb(38, 50, 56); stroke-miterlimit: 10; transform-origin: 243.235px 274.877px;" id="el49r4zucrzxi" class="animable"></path><path d="M226,285s-3.43,2.71-5.05,3.25" style="fill: none; stroke: rgb(38, 50, 56); stroke-miterlimit: 10; transform-origin: 223.475px 286.625px;" id="elyjzi6ff4b7g" class="animable"></path><path d="M237.55,284.41s3.79,4,6.32,4.87" style="fill: none; stroke: rgb(38, 50, 56); stroke-miterlimit: 10; transform-origin: 240.71px 286.845px;" id="elbqlwolczsta" class="animable"></path><path d="M270.49,402.25s4.9-3.67,12.75-8.58,15.44-3.43,19.61,1.23,4.66,17.65-1.72,23.29-14.95,4.16-20.34,2.69-12-7.11-12.51-8.33S270.49,402.25,270.49,402.25Z" style="fill: rgb(255, 114, 94); stroke: rgb(38, 50, 56); stroke-miterlimit: 10; transform-origin: 287.088px 406.423px;" id="el9peci4tcibj" class="animable"></path><path d="M273.68,399.56s2.45-2.95,5.88-3.19,9.56,2.94,11,10.79-2,14.21-6.13,16.17-10.78.74-12.25-1.47a36.74,36.74,0,0,1-2.94-6.37Z" style="fill: rgb(255, 255, 255); stroke: rgb(38, 50, 56); stroke-miterlimit: 10; transform-origin: 280.067px 410.335px;" id="eluoh8t3508t" class="animable"></path><path d="M269,391.22s-13.48-11-14.95-11.52-11.77,2.7-11.77,2.7l2.7,10.05s-1.23,1-5.15-2.45-6.37-8.09-7.84-6.62-2.21,4.41,1.22,8.09,8.09,8.58,10.54,12,9.56,5.15,9.56,5.15,1.72,3.18,8.34,6.37,16.91,5.15,16.91,5.15,7.11-7.85,4.41-14.71a8.85,8.85,0,0,0-9.31-5.88l-3.19-.74Z" style="fill: rgb(255, 255, 255); stroke: rgb(38, 50, 56); stroke-miterlimit: 10; transform-origin: 257.17px 399.892px;" id="elpff9ja7fwuq" class="animable"></path><path d="M250.8,377.53s-8-6.51-10.11-6.21-6.7,2.56-8.52,3.83-.19,3.74,2,3.65a29.41,29.41,0,0,0,5.12-.84l1.29-.71,5.83,9.11" style="fill: rgb(255, 255, 255); stroke: rgb(38, 50, 56); stroke-miterlimit: 10; transform-origin: 241.093px 378.835px;" id="el3y0kvmwxxld" class="animable"></path><line x1="240.58" y1="377.25" x2="243.71" y2="375.82" style="fill: rgb(255, 255, 255); stroke: rgb(38, 50, 56); stroke-miterlimit: 10; transform-origin: 242.145px 376.535px;" id="el50sulahmipj" class="animable"></line><path d="M260,377.05s-8-6.5-10.1-6.2-6.71,2.55-8.53,3.83-.19,3.73,2,3.65a29,29,0,0,0,5.12-.85l1.29-.7,5.82,9.1" style="fill: rgb(255, 255, 255); stroke: rgb(38, 50, 56); stroke-miterlimit: 10; transform-origin: 250.293px 378.36px;" id="elr9q8tik8k3" class="animable"></path><line x1="249.78" y1="376.78" x2="252.91" y2="375.34" style="fill: rgb(255, 255, 255); stroke: rgb(38, 50, 56); stroke-miterlimit: 10; transform-origin: 251.345px 376.06px;" id="el4cq5ot3y6ek" class="animable"></line><path d="M267.3,383.62s-3.92-9.56-5.88-10.29-7.11-1-9.31-.74-2,3.19,0,4.17a29,29,0,0,0,4.9,1.71h1.47l.73,10.79" style="fill: rgb(255, 255, 255); stroke: rgb(38, 50, 56); stroke-miterlimit: 10; transform-origin: 258.917px 380.877px;" id="el15hm0i7yc2p" class="animable"></path><line x1="258.48" y1="378.47" x2="261.91" y2="378.72" style="fill: rgb(255, 255, 255); stroke: rgb(38, 50, 56); stroke-miterlimit: 10; transform-origin: 260.195px 378.595px;" id="el2z2fwnmig9m" class="animable"></line><path d="M269.51,400.78s2.21-11.76,1.72-13-4.66-6.62-5.89-6.62-3.67,2.45-2.69,4.9a4,4,0,0,0,2.94,2.7v6.86l-2.21,2.95" style="fill: rgb(255, 255, 255); stroke: rgb(38, 50, 56); stroke-miterlimit: 10; transform-origin: 266.862px 390.97px;" id="elztub6cwwi4c" class="animable"></path><polygon points="245.02 414.45 201.08 414.45 198.64 361.69 247.46 361.69 245.02 414.45" style="fill: rgb(38, 50, 56); stroke: rgb(38, 50, 56); stroke-miterlimit: 10; transform-origin: 223.05px 388.07px;" id="elk4jnrnyqih" class="animable"></polygon><path d="M178.44,391.31s-17.23-12.5-18.92-13.17-11.15,3.37-16.56,7.43-5.07,8.11-3,13.18,10.13,11.49,13.18,13.85,17.57,1,17.57,1Z" style="fill: rgb(255, 114, 94); stroke: rgb(38, 50, 56); stroke-miterlimit: 10; transform-origin: 158.502px 396.028px;" id="el8dwer5nu0ho" class="animable"></path><path d="M181.82,393s-3.72-5.4-5.41-5.74-6.76,3.38-9.46,6.76-5.41,12.5-5.41,17.23,8.11,6.08,9.46,6.08,3.38-4.05,5.75-5.4S181.82,393,181.82,393Z" style="fill: rgb(255, 255, 255); stroke: rgb(38, 50, 56); stroke-miterlimit: 10; transform-origin: 171.68px 402.284px;" id="elmi6025l1w6n" class="animable"></path><path d="M232.5,409.85s6.12,0,7.59-1,6.13-7.84,6.87-9.31-2.21-1.47-3.92,1.71-8.34,5.64-10,6.62a25.09,25.09,0,0,1-5.64,1.72Z" style="fill: rgb(255, 255, 255); stroke: rgb(38, 50, 56); stroke-miterlimit: 10; transform-origin: 237.238px 404.22px;" id="elgqkmzeh03nv" class="animable"></path><path d="M178.44,391.31,203.11,394s4-11.49,5.74-11.83a58.76,58.76,0,0,0,10.47-4.73c1.36-1,3.72-2.37,2.37,1.35s-8.79,7.44-8.79,7.44,6.76,4.39,8.79,4.73,16.22-2.71,16.22-2.71,10.47-4,11.49-3.38-1.69,3.38-1.69,3.38,2-1.35,2.7.34-1.69,5.07-1.69,5.07,1,.67.34,3.38-9.8,10.13-11.83,11.49-12.84,1.69-19.93,1.69a116.27,116.27,0,0,1-15.55-1.36s-28.38,4.74-29.73,4.74S163.91,399.76,178.44,391.31Z" style="fill: rgb(255, 255, 255); stroke: rgb(38, 50, 56); stroke-miterlimit: 10; transform-origin: 209.906px 394.973px;" id="el75kka1agimi" class="animable"></path><path d="M247.71,388.27s-13.18,10.14-14.87,10.14-11.83,2.7-11.83,2.7" style="fill: rgb(255, 255, 255); stroke: rgb(38, 50, 56); stroke-miterlimit: 10; transform-origin: 234.36px 394.69px;" id="elc6i76vtpkc" class="animable"></path><path d="M248.72,393.68s-10.47,9.12-11.49,9.8-10.81,2.36-10.81,2.36" style="fill: rgb(255, 255, 255); stroke: rgb(38, 50, 56); stroke-miterlimit: 10; transform-origin: 237.57px 399.76px;" id="el6333i801ab" class="animable"></path><path d="M342,482.26c-9.08-14.91-36.85-57.82-54.45-56.14-21.29,2-89.21,29.73-89.21,29.73L321.6,482.26Z" style="fill: rgb(38, 50, 56); stroke: rgb(38, 50, 56); stroke-miterlimit: 10; transform-origin: 270.17px 454.166px;" id="eltwsyj08acz9" class="animable"></path><path d="M190.93,482.26V426a5.87,5.87,0,0,0-5.8-5.93H141.68a5.87,5.87,0,0,0-5.8,5.93v56.3Z" style="fill: rgb(212, 212, 212); stroke: rgb(38, 50, 56); stroke-miterlimit: 10; transform-origin: 163.405px 451.185px;" id="elehgr5rpzia" class="animable"></path><path d="M205.12,482.26V426.15A5.89,5.89,0,0,0,199.5,420H169.92a5.89,5.89,0,0,0-5.62,6.12v56.11Z" style="fill: rgb(212, 212, 212); stroke: rgb(38, 50, 56); stroke-miterlimit: 10; transform-origin: 184.711px 451.13px;" id="ellklclnnff89" class="animable"></path></g><g id="freepik--Line--inject-66" class="animable" style="transform-origin: 253.76px 482.26px;"><line x1="54.95" y1="482.26" x2="29.1" y2="482.26" style="fill: none; stroke: rgb(38, 50, 56); stroke-miterlimit: 10; transform-origin: 42.025px 482.26px;" id="elh0oivnlqi7a" class="animable"></line><line x1="478.42" y1="482.26" x2="66.15" y2="482.26" style="fill: none; stroke: rgb(38, 50, 56); stroke-miterlimit: 10; transform-origin: 272.285px 482.26px;" id="elncgy70t5vl" class="animable"></line></g><defs>     <filter id="active" height="200%">         <feMorphology in="SourceAlpha" result="DILATED" operator="dilate" radius="2"></feMorphology>                <feFlood flood-color="#32DFEC" flood-opacity="1" result="PINK"></feFlood>        <feComposite in="PINK" in2="DILATED" operator="in" result="OUTLINE"></feComposite>        <feMerge>            <feMergeNode in="OUTLINE"></feMergeNode>            <feMergeNode in="SourceGraphic"></feMergeNode>        </feMerge>    </filter>    <filter id="hover" height="200%">        <feMorphology in="SourceAlpha" result="DILATED" operator="dilate" radius="2"></feMorphology>                <feFlood flood-color="#ff0000" flood-opacity="0.5" result="PINK"></feFlood>        <feComposite in="PINK" in2="DILATED" operator="in" result="OUTLINE"></feComposite>        <feMerge>            <feMergeNode in="OUTLINE"></feMergeNode>            <feMergeNode in="SourceGraphic"></feMergeNode>        </feMerge>            <feColorMatrix type="matrix" values="0   0   0   0   0                0   1   0   0   0                0   0   0   0   0                0   0   0   1   0 "></feColorMatrix>    </filter></defs></svg>